<?xml version="1.0" standalone="no"?>
<!DOCTYPE svg PUBLIC "-//W3C//DTD SVG 20010904//EN"
 "http://www.w3.org/TR/2001/REC-SVG-20010904/DTD/svg10.dtd">
<svg version="1.0" xmlns="http://www.w3.org/2000/svg"
 width="260.000000pt" height="260.000000pt" viewBox="0 0 260.000000 260.000000"
 preserveAspectRatio="xMidYMid meet">
<metadata>
Created by potrace 1.14, written by Peter Selinger 2001-2017
</metadata>
<g transform="translate(0.000000,260.000000) scale(0.100000,-0.100000)"
fill="#000000" stroke="none">
<path d="M446 2260 c-54 -27 -81 -55 -105 -106 -21 -43 -21 -58 -21 -854 0
-804 0 -811 21 -855 21 -45 70 -91 122 -113 21 -9 227 -12 836 -12 895 0 847
-3 916 65 68 69 65 21 65 916 0 609 -3 815 -12 836 -22 52 -68 101 -113 122
-44 21 -51 21 -857 21 -788 -1 -814 -1 -852 -20z m1604 -955 l0 -755 -755 0
-755 0 0 755 0 755 755 0 755 0 0 -755z"/>
<path d="M1190 1295 l0 -545 110 0 110 0 0 545 0 545 -110 0 -110 0 0 -545z"/>
<path d="M760 1135 l0 -385 110 0 110 0 0 385 0 385 -110 0 -110 0 0 -385z"/>
<path d="M1620 975 l0 -225 115 0 115 0 0 225 0 225 -115 0 -115 0 0 -225z"/>
</g>
</svg>
